<svg width="90" height="90" viewBox="0 0 90 90" fill="none" xmlns="http://www.w3.org/2000/svg">
<circle cx="45" cy="45" r="45" fill="#1C1B19"/>
<path d="M62.4381 40.9056C62.434 39.5235 62.9606 38.1926 63.9092 37.1874C64.8578 36.1822 66.156 35.5795 67.5361 35.5035C70.699 35.4275 73.1701 37.7008 73.2081 40.8524C73.23 41.5714 73.1077 42.2875 72.8484 42.9584C72.5891 43.6294 72.198 44.2416 71.6983 44.759C71.1986 45.2763 70.6003 45.6884 69.9388 45.9708C69.2772 46.2532 68.5658 46.4003 67.8465 46.4034C67.1272 46.4064 66.4146 46.2654 65.7507 45.9885C65.0867 45.7117 64.485 45.3048 63.9809 44.7916C63.4768 44.2785 63.0806 43.6696 62.8156 43.0009C62.5506 42.3322 62.4223 41.6172 62.4381 40.898V40.9056ZM72.4516 39.0276C72.4647 38.975 72.4672 38.9203 72.4587 38.8667C72.4502 38.8131 72.431 38.7618 72.4022 38.7159C72.0152 37.8667 71.3957 37.1444 70.6154 36.6326C70.5542 36.5927 70.4856 36.5656 70.4137 36.553C70.3418 36.5404 70.2681 36.5425 70.197 36.5592C70.1259 36.5759 70.059 36.6069 70.0002 36.6502C69.9414 36.6935 69.8921 36.7483 69.8551 36.8113C69.7676 36.7466 69.7562 36.4843 69.6916 36.5718C69.5357 36.7885 69.357 36.6402 69.2012 36.6668C68.9167 36.7276 68.6227 36.7276 68.3382 36.6668C68.1126 36.5727 67.8645 36.5462 67.6242 36.5908C67.3838 36.6354 67.1617 36.749 66.9848 36.9177C66.8594 37.0394 66.7149 37.0926 66.8176 37.2979C66.8822 37.4385 66.7415 37.526 66.6351 37.5944C66.5286 37.6628 66.4716 37.5564 66.4108 37.4842C66.35 37.4119 66.369 37.2523 66.2245 37.3283C66.201 37.3429 66.1808 37.3621 66.1652 37.3848C66.1495 37.4076 66.1386 37.4333 66.1332 37.4604C66.1279 37.4875 66.1282 37.5154 66.1341 37.5423C66.14 37.5693 66.1513 37.5948 66.1675 37.6172C66.2407 37.7295 66.2704 37.8647 66.2511 37.9974C66.2511 38.1494 66.2169 38.2065 66.0838 38.2483C65.8291 38.3281 65.7759 38.4688 65.9014 38.7235C65.928 38.7767 65.9698 38.8375 65.9014 38.8794C65.7189 39.0124 65.7075 39.2595 65.5554 39.4116C65.436 39.5655 65.3509 39.7431 65.3056 39.9326C65.2604 40.1221 65.2561 40.319 65.2931 40.5103C65.2988 40.6172 65.3303 40.7212 65.385 40.8133C65.4397 40.9053 65.516 40.9827 65.6072 41.0388C65.6985 41.0949 65.802 41.128 65.9088 41.1353C66.0157 41.1425 66.1227 41.1237 66.2207 41.0805C66.4184 41.0197 66.7947 41.2098 66.7795 41.3694C66.7702 41.4663 66.7806 41.564 66.81 41.6568C66.8394 41.7496 66.8872 41.8354 66.9506 41.9093C67.004 41.9674 67.0451 42.0358 67.0712 42.1103C67.0974 42.1848 67.1081 42.2639 67.1027 42.3426C66.9848 42.7646 67.2738 43.0269 67.4448 43.3235C67.5399 43.4907 67.6273 43.7264 67.9048 43.7036C68.057 43.6999 68.2021 43.6386 68.3107 43.532C68.4194 43.4255 68.4836 43.2816 68.4903 43.1296C68.4903 43.0421 68.4903 42.9547 68.5663 42.8939C68.6451 42.8329 68.6997 42.746 68.7206 42.6486C68.7415 42.5512 68.7272 42.4496 68.6804 42.3617C68.5017 41.9815 68.6804 41.7116 68.9275 41.4493C69.0665 41.285 69.1515 41.0819 69.1708 40.8676C69.1708 40.7536 69.1518 40.6699 69.0035 40.7155C68.9199 40.7384 68.802 40.8334 68.7602 40.6927C68.7184 40.5521 68.8742 40.5901 68.9427 40.5445C69.1784 40.3886 69.4825 40.3164 69.5737 39.978C69.627 39.7727 69.5167 39.6321 69.3647 39.6473C69.0187 39.6777 69.0719 39.423 68.9845 39.2671C69.1577 39.4683 69.3957 39.6027 69.6574 39.6473C70.144 39.6739 70.2428 40.0046 70.3645 40.3468C70.4329 40.5407 70.5051 40.727 70.5812 40.9208C70.623 41.0273 70.6306 41.0235 70.8093 41.0767C70.7442 40.9275 70.7229 40.7629 70.7478 40.602C70.7727 40.4412 70.8428 40.2907 70.9499 40.1681C71.045 40.0465 71.1666 39.959 71.2807 40.1263C71.3912 40.3062 71.4878 40.4943 71.5696 40.6889C71.6342 40.8296 71.7825 40.9512 71.8851 40.9284C71.9878 40.9056 71.9802 40.7193 71.9536 40.5939C71.9328 40.5293 71.9087 40.4659 71.8813 40.4038C71.8698 40.3796 71.8638 40.3532 71.8637 40.3264C71.8635 40.2996 71.8693 40.2731 71.8805 40.2488C71.8918 40.2245 71.9082 40.203 71.9287 40.1857C71.9493 40.1685 71.9733 40.156 71.9992 40.1491C72.1215 40.1019 72.2216 40.0104 72.2793 39.8927C72.3371 39.775 72.3484 39.6399 72.3109 39.5142C72.2691 39.3279 72.2235 39.1341 72.1855 38.982C72.3299 38.887 72.3641 39.0466 72.4516 39.0276ZM64.1526 44.1294C64.0717 44.0352 64.0248 43.9166 64.0193 43.7925C64.0137 43.6685 64.05 43.5461 64.1222 43.4451C64.1823 43.3418 64.2013 43.2197 64.1754 43.103C64.1702 43.0699 64.173 43.0361 64.1836 43.0043C64.1942 42.9726 64.2122 42.9438 64.2362 42.9205C64.4986 42.5936 64.3731 42.1944 64.4187 41.8294C64.4187 41.7914 64.3579 41.723 64.3085 41.7002C63.8713 41.5025 63.6698 41.0729 63.3657 40.746C63.3241 40.6986 63.2686 40.6657 63.207 40.652C63.1455 40.6383 63.0812 40.6446 63.0235 40.6699C62.977 40.6805 62.9349 40.7052 62.903 40.7405C62.871 40.7759 62.8507 40.8203 62.8448 40.8676C62.7954 41.1354 62.8012 41.4105 62.862 41.6759C62.9228 41.9413 63.0373 42.1915 63.1984 42.4111C63.2402 42.4877 63.2673 42.5716 63.2782 42.6582C63.3323 42.9057 63.4021 43.1495 63.4873 43.3881C63.5409 43.551 63.6277 43.7009 63.7422 43.8285C63.8567 43.9561 63.9965 44.0586 64.1526 44.1294ZM64.3427 37.3511C64.3368 37.3857 64.3431 37.4212 64.3604 37.4517C64.3777 37.4822 64.405 37.5057 64.4377 37.5184C64.5328 37.5526 64.5784 37.4651 64.6202 37.4043C64.6972 37.3046 64.7927 37.2207 64.9015 37.1572C65.2365 37.0006 65.5229 36.7563 65.7303 36.4501C65.7569 36.4007 65.8215 36.3475 65.7759 36.2942C65.7303 36.241 65.6467 36.2638 65.5896 36.2942C65.1751 36.492 64.7911 36.748 64.4491 37.0546C64.4099 37.0926 64.3799 37.1391 64.3615 37.1905C64.343 37.2419 64.3366 37.2968 64.3427 37.3511ZM71.7939 43.5934C72.0127 43.4973 72.1967 43.3365 72.3211 43.1325C72.4455 42.9286 72.5043 42.6913 72.4896 42.4529C72.0828 42.7836 71.7331 43.1334 71.7939 43.5934ZM63.2858 38.9516C63.3923 38.8299 63.4493 38.7349 63.571 38.6931C63.6926 38.6513 63.7762 38.598 63.6622 38.4612C63.609 38.3965 63.6622 38.3509 63.723 38.3471C63.7838 38.3433 63.8295 38.2027 63.9017 38.3129C63.9245 38.3471 63.9435 38.4041 63.9701 38.3661C64.0017 38.3078 64.0183 38.2424 64.0183 38.1761C64.0183 38.1097 64.0017 38.0443 63.9701 37.986C63.9207 37.8681 63.8257 37.8187 63.723 37.9289C63.5018 38.1739 63.3347 38.4628 63.2326 38.7767C63.206 38.8147 63.244 38.8679 63.2858 38.9516Z" fill="url(#paint0_linear_77_226)"/>
<path d="M58.9408 70.7864C51.3109 74.0026 43.5594 74.033 35.9751 70.7104C21.3616 64.3046 14.5491 48.2427 20.1375 33.4201C23.2548 25.1592 29.0713 19.4263 37.3361 16.3394C45.6009 13.2525 53.7174 13.9748 61.5601 17.9893C55.8105 14.332 49.0455 12.601 42.2459 13.047C35.4463 13.4931 28.9654 16.0931 23.7428 20.4702C18.5203 24.8473 14.8274 30.7739 13.1997 37.3908C11.5719 44.0078 12.0938 50.9712 14.6897 57.2716C20.301 70.7826 34.3366 78.8687 48.7486 76.8539C63.7423 74.7516 72.8966 63.2212 74.9343 54.2987C71.8284 62.0199 66.5441 67.5817 58.9408 70.7864Z" fill="url(#paint1_linear_77_226)"/>
<path d="M58.3133 36.8873C58.7201 36.5452 59.1459 36.2258 59.5222 35.8533C60.0468 35.3362 60.0202 35.1918 59.4044 34.8002C58.473 34.2072 57.5226 33.6597 56.6026 33.0324C55.7083 32.451 54.9486 31.6851 54.3743 30.7863C53.7999 29.8874 53.4242 28.8762 53.2723 27.8204C52.8922 25.6611 53.029 23.5017 53.2305 21.3576C53.438 19.8344 53.1893 18.2839 52.5158 16.9021C52.4132 16.7044 52.2269 16.4611 52.0406 16.4155C51.5119 16.3111 50.9775 16.2388 50.4401 16.1988C50.8469 17.9663 50.8469 19.803 50.4401 21.5705C49.2198 26.9612 46.4218 31.4548 42.4301 35.2032C40.0426 37.4309 37.4803 39.5332 35.1537 41.8408C32.6169 44.2609 30.9606 47.4585 30.4473 50.9268C29.9303 54.4699 30.4207 57.7697 32.7017 60.6475C33.7075 61.9505 34.9721 63.0313 36.4159 63.8219C35.3894 62.1758 35.5187 60.5677 35.8836 58.9482C36.336 56.9333 37.3168 55.1466 38.3889 53.413C38.9682 52.4543 39.7312 51.6195 40.6342 50.9567C41.5371 50.2938 42.5621 49.816 43.6504 49.5506C45.9998 48.9271 48.391 49.0792 50.7784 49.1894C52.1213 49.2743 53.4675 49.2908 54.812 49.2388C56.0171 49.1704 56.614 48.4215 56.6216 47.2011C56.6216 46.5397 56.5113 45.8706 56.5645 45.2167C56.6026 44.7491 56.6938 44.1522 56.9979 43.8709C57.8723 43.0688 58.3551 42.2438 57.7126 41.1185C58.7581 40.4228 58.7885 40.286 58.2183 39.2177C58.127 39.039 58.0244 38.868 57.9407 38.6893C57.5378 37.8681 57.629 37.4614 58.3133 36.8873Z" fill="url(#paint2_linear_77_226)"/>
<path d="M34.7242 34.2148C37.1953 32.5459 39.7652 31.0214 41.9853 28.9989C44.8708 26.3758 47.3532 23.4638 48.547 19.6735C48.9005 18.5596 48.9765 17.3545 49.1894 16.1342C40.3316 15.4765 29.9683 19.5633 24.129 28.8621C19.1527 36.7961 18.4494 45.2091 21.7036 53.9529C21.7321 53.9352 21.7558 53.9105 21.7724 53.8813C21.789 53.8521 21.798 53.8192 21.7986 53.7856C21.9051 50.2197 23.0646 46.9883 24.935 43.9888C27.4479 39.9781 30.8389 36.8417 34.7242 34.2148Z" fill="url(#paint3_linear_77_226)"/>
<path d="M73.7329 49.235L75.5424 46.1367C75.145 46.0744 74.7381 46.1163 74.3617 46.2582C73.9852 46.4001 73.652 46.6373 73.3945 46.9464C72.5787 47.7952 71.8584 48.731 71.2466 49.7368C70.5917 50.9862 69.6704 52.0764 68.5477 52.9304C67.425 53.7844 66.1284 54.3813 64.7496 54.679C62.9324 55.1047 61.1304 55.6294 59.2486 56.1312C59.3212 55.8007 59.475 55.4935 59.696 55.2373C59.917 54.9811 60.1983 54.784 60.5146 54.6637C61.4042 54.2532 62.3026 53.8629 63.2099 53.4928C63.9211 53.2299 64.5335 52.7533 64.963 52.1285C65.3926 51.5036 65.6181 50.7611 65.6088 50.0029C65.511 50.019 65.4145 50.0419 65.3198 50.0714C63.2898 50.8051 61.2673 51.5578 59.2372 52.2725C58.2341 52.5565 57.3598 53.1783 56.7624 54.0327C55.8956 55.3805 55.1209 56.7852 54.4434 58.2373C53.0482 61.328 51.7822 64.472 50.4288 67.5817C49.8624 68.8895 49.2199 70.163 48.604 71.4746C48.7143 71.5088 48.7865 71.5544 48.8473 71.543C51.2728 71.1438 53.6982 70.7523 56.1123 70.3113C56.2539 70.2524 56.3815 70.1645 56.4869 70.0532C56.5924 69.9418 56.6733 69.8096 56.7243 69.665C57.7812 66.8708 58.7848 64.0538 59.8531 61.2634C60.0233 60.864 60.3198 60.5315 60.697 60.3168C61.8375 59.7123 63.0198 59.2333 64.1527 58.6365C66.5174 57.3971 69.1747 56.7128 70.9159 54.3558C72.1438 52.6945 73.8013 51.3525 75.2611 49.8661C76.0595 49.0525 76.8464 48.2276 77.7588 47.2772C75.7819 46.7753 75.1357 48.5697 73.7329 49.235Z" fill="url(#paint4_linear_77_226)"/>
<path d="M25.5242 60.7273C29.6452 66.1675 35.6606 69.8598 42.3769 71.0716C44.331 71.4518 44.0876 71.8775 44.7377 69.5775C45.1562 68.1783 45.2678 66.7052 45.0647 65.2589C44.6009 67.0457 43.3539 67.8972 41.6432 68.1633C40.1905 68.3653 38.7104 68.2087 37.3321 67.7071C35.2879 67.0626 33.4127 65.9712 31.8425 64.5121C30.2723 63.0531 29.0464 61.2628 28.2538 59.2713C26.5697 55.2492 26.296 51.2232 28.0904 47.1669C29.3791 44.2586 31.3027 41.78 33.4697 39.4876C34.5798 38.3091 35.7507 37.2066 36.8911 36.0661C36.8307 36.0512 36.7675 36.0507 36.7068 36.0645C36.6461 36.0784 36.5894 36.1063 36.5414 36.1459C34.2224 37.9897 31.8502 39.7727 29.5958 41.6925C25.3304 45.3231 22.9505 49.9421 22.6692 55.5799C22.645 55.9299 22.7215 56.2795 22.8897 56.5873C23.6848 58.0185 24.5645 59.4009 25.5242 60.7273Z" fill="url(#paint5_linear_77_226)"/>
<path d="M45 4.73682C37.0366 4.73682 29.2519 7.09831 22.6306 11.5226C16.0093 15.947 10.8487 22.2355 7.80135 29.5928C4.75404 36.9502 3.95692 45.0459 5.51079 52.8563C7.06466 60.6667 10.8997 67.8409 16.531 73.4717C22.1623 79.1024 29.3369 82.9368 37.1474 84.4899C44.9579 86.0431 53.0536 85.2452 60.4107 82.1972C67.7677 79.1492 74.0557 73.9879 78.4794 67.3662C82.9032 60.7445 85.2639 52.9596 85.2632 44.9962C85.2632 39.7089 84.2217 34.4734 82.1982 29.5887C80.1748 24.704 77.209 20.2656 73.4701 16.5272C69.7313 12.7887 65.2927 9.82328 60.4078 7.80029C55.5228 5.77729 50.2873 4.73632 45 4.73682ZM45 82.4195C37.6315 82.4195 30.4284 80.2345 24.3017 76.1407C18.1749 72.047 13.3997 66.2284 10.5799 59.4207C7.76009 52.6131 7.02229 45.1221 8.45983 37.8951C9.89736 30.6682 13.4457 24.0298 18.656 18.8194C23.8664 13.6091 30.5048 10.0608 37.7317 8.62325C44.9587 7.18571 52.4496 7.92351 59.2573 10.7433C66.0649 13.5632 71.8835 18.3384 75.9773 24.4651C80.071 30.5918 82.2561 37.7949 82.2561 45.1634C82.2561 55.0444 78.3309 64.5206 71.344 71.5074C64.3572 78.4943 54.8809 82.4195 45 82.4195Z" fill="url(#paint6_linear_77_226)"/>
<defs>
<linearGradient id="paint0_linear_77_226" x1="74.5837" y1="39.3493" x2="62.2129" y2="41.9617" gradientUnits="userSpaceOnUse">
<stop stop-color="#D5A83C"/>
<stop offset="0.229167" stop-color="#B8862C"/>
<stop offset="0.536458" stop-color="#E0BB52"/>
<stop offset="0.8125" stop-color="#BA8434"/>
<stop offset="1" stop-color="#E6C14F"/>
</linearGradient>
<linearGradient id="paint1_linear_77_226" x1="82.9208" y1="35.6306" x2="10.8953" y2="50.6565" gradientUnits="userSpaceOnUse">
<stop stop-color="#D5A83C"/>
<stop offset="0.229167" stop-color="#B8862C"/>
<stop offset="0.536458" stop-color="#E0BB52"/>
<stop offset="0.8125" stop-color="#BA8434"/>
<stop offset="1" stop-color="#E6C14F"/>
</linearGradient>
<linearGradient id="paint2_linear_77_226" x1="63.6694" y1="33.007" x2="28.7443" y2="37.6505" gradientUnits="userSpaceOnUse">
<stop stop-color="#D5A83C"/>
<stop offset="0.229167" stop-color="#B8862C"/>
<stop offset="0.536458" stop-color="#E0BB52"/>
<stop offset="0.8125" stop-color="#BA8434"/>
<stop offset="1" stop-color="#E6C14F"/>
</linearGradient>
<linearGradient id="paint3_linear_77_226" x1="52.9456" y1="29.4378" x2="18.5471" y2="35.1553" gradientUnits="userSpaceOnUse">
<stop stop-color="#D5A83C"/>
<stop offset="0.229167" stop-color="#B8862C"/>
<stop offset="0.536458" stop-color="#E0BB52"/>
<stop offset="0.8125" stop-color="#BA8434"/>
<stop offset="1" stop-color="#E6C14F"/>
</linearGradient>
<linearGradient id="paint4_linear_77_226" x1="81.4746" y1="55.0861" x2="48.4843" y2="63.1659" gradientUnits="userSpaceOnUse">
<stop stop-color="#D5A83C"/>
<stop offset="0.229167" stop-color="#B8862C"/>
<stop offset="0.536458" stop-color="#E0BB52"/>
<stop offset="0.8125" stop-color="#BA8434"/>
<stop offset="1" stop-color="#E6C14F"/>
</linearGradient>
<linearGradient id="paint5_linear_77_226" x1="48.0307" y1="48.5198" x2="21.5363" y2="52.1261" gradientUnits="userSpaceOnUse">
<stop stop-color="#D5A83C"/>
<stop offset="0.229167" stop-color="#B8862C"/>
<stop offset="0.536458" stop-color="#E0BB52"/>
<stop offset="0.8125" stop-color="#BA8434"/>
<stop offset="1" stop-color="#E6C14F"/>
</linearGradient>
<linearGradient id="paint6_linear_77_226" x1="95.5263" y1="33.1579" x2="3.1579" y2="52.8947" gradientUnits="userSpaceOnUse">
<stop stop-color="#D5A83C"/>
<stop offset="0.229167" stop-color="#B8862C"/>
<stop offset="0.536458" stop-color="#E0BB52"/>
<stop offset="0.8125" stop-color="#BA8434"/>
<stop offset="1" stop-color="#E6C14F"/>
</linearGradient>
</defs>
</svg>
